<svg width="100" height="105" viewBox="0 0 100 105" fill="none" xmlns="http://www.w3.org/2000/svg">
<mask id="path-1-inside-1_46_8" fill="white">
<path d="M90 91.875H80V34.4531L50 59.0625L20 34.4531V91.875H10V13.125H16L50 41.0156L84 13.125H90M90 0H10C4.45 0 0 5.84062 0 13.125V91.875C0 95.356 1.05357 98.6944 2.92893 101.156C4.8043 103.617 7.34784 105 10 105H90C92.6522 105 95.1957 103.617 97.0711 101.156C98.9464 98.6944 100 95.356 100 91.875V13.125C100 9.64403 98.9464 6.30564 97.0711 3.84422C95.1957 1.38281 92.6522 0 90 0Z"/>
</mask>
<path d="M90 91.875H80V34.4531L50 59.0625L20 34.4531V91.875H10V13.125H16L50 41.0156L84 13.125H90M90 0H10C4.45 0 0 5.84062 0 13.125V91.875C0 95.356 1.05357 98.6944 2.92893 101.156C4.8043 103.617 7.34784 105 10 105H90C92.6522 105 95.1957 103.617 97.0711 101.156C98.9464 98.6944 100 95.356 100 91.875V13.125C100 9.64403 98.9464 6.30564 97.0711 3.84422C95.1957 1.38281 92.6522 0 90 0Z" fill="#1C1C1C"/>
<path d="M80 91.875H79V92.875H80V91.875ZM80 34.4531H81V32.3394L79.3658 33.68L80 34.4531ZM50 59.0625L49.3658 59.8356L50 60.3559L50.6342 59.8356L50 59.0625ZM20 34.4531L20.6342 33.68L19 32.3394V34.4531H20ZM20 91.875V92.875H21V91.875H20ZM10 91.875H9V92.875H10V91.875ZM10 13.125V12.125H9V13.125H10ZM16 13.125L16.6342 12.3519L16.3577 12.125H16V13.125ZM50 41.0156L49.3658 41.7888L50 42.309L50.6342 41.7888L50 41.0156ZM84 13.125V12.125H83.6423L83.3658 12.3519L84 13.125ZM90 0V-1V0ZM0 91.875H-1H0ZM90 90.875H80V92.875H90V90.875ZM81 91.875V34.4531H79V91.875H81ZM79.3658 33.68L49.3658 58.2894L50.6342 59.8356L80.6342 35.2263L79.3658 33.68ZM50.6342 58.2894L20.6342 33.68L19.3658 35.2263L49.3658 59.8356L50.6342 58.2894ZM19 34.4531V91.875H21V34.4531H19ZM20 90.875H10V92.875H20V90.875ZM11 91.875V13.125H9V91.875H11ZM10 14.125H16V12.125H10V14.125ZM15.3658 13.8981L49.3658 41.7888L50.6342 40.2425L16.6342 12.3519L15.3658 13.8981ZM50.6342 41.7888L84.6342 13.8981L83.3658 12.3519L49.3658 40.2425L50.6342 41.7888ZM84 14.125H90V12.125H84V14.125ZM90 -1H10V1H90V-1ZM10 -1C6.84943 -1 4.07661 0.661126 2.12332 3.22482C0.171597 5.78645 -1 9.2859 -1 13.125H1C1 9.67973 2.0534 6.61668 3.71418 4.4369C5.37339 2.25919 7.60057 1 10 1V-1ZM-1 13.125V91.875H1V13.125H-1ZM-1 91.875C-1 95.5462 0.109013 99.1047 2.1335 101.762L3.72436 100.55C1.99812 98.284 1 95.1657 1 91.875H-1ZM2.1335 101.762C4.16234 104.425 6.98125 106 10 106V104C7.71442 104 5.44625 102.81 3.72436 100.55L2.1335 101.762ZM10 106H90V104H10V106ZM90 106C93.0188 106 95.8377 104.425 97.8665 101.762L96.2756 100.55C94.5537 102.81 92.2856 104 90 104V106ZM97.8665 101.762C99.891 99.1047 101 95.5462 101 91.875H99C99 95.1657 98.0019 98.284 96.2756 100.55L97.8665 101.762ZM101 91.875V13.125H99V91.875H101ZM101 13.125C101 9.45381 99.891 5.89532 97.8665 3.23818L96.2756 4.45027C98.0019 6.71596 99 9.83426 99 13.125H101ZM97.8665 3.23818C95.8377 0.575331 93.0188 -1 90 -1V1C92.2856 1 94.5537 2.19028 96.2756 4.45027L97.8665 3.23818Z" fill="#ECFF9F" mask="url(#path-1-inside-1_46_8)"/>
</svg>
