<svg width="100" height="105" viewBox="0 0 100 105" fill="none" xmlns="http://www.w3.org/2000/svg">
<path d="M86.1111 90.9167H86.6111V90.4167V59.5C86.6111 54.3315 84.6559 49.3701 81.1686 45.7084C77.6804 42.0458 72.9441 39.9833 68 39.9833C63.5985 39.9833 58.5838 42.5062 55.6111 46.4242V41.5917V41.0917H55.1111H39.6111H39.1111V41.5917V90.4167V90.9167H39.6111H55.1111H55.6111V90.4167V61.6583C55.6111 57.4148 58.8589 53.9917 62.8333 53.9917C64.7554 53.9917 66.604 54.7932 67.971 56.2285C69.3387 57.6646 70.1111 59.6173 70.1111 61.6583V90.4167V90.9167H70.6111H86.1111ZM29.2778 90.9167H29.7778V90.4167V41.5917V41.0917H29.2778H13.8889H13.3889V41.5917V90.4167V90.9167H13.8889H29.2778ZM88.8889 0.5C91.695 0.5 94.3915 1.67025 96.3836 3.76191C98.3764 5.85441 99.5 8.69742 99.5 11.6667V93.3333C99.5 96.3026 98.3764 99.1456 96.3836 101.238C94.3915 103.33 91.695 104.5 88.8889 104.5H11.1111C8.30496 104.5 5.6085 103.33 3.61644 101.238C1.62359 99.1456 0.5 96.3026 0.5 93.3333V11.6667C0.5 8.69742 1.62359 5.85441 3.61644 3.76191C5.6085 1.67025 8.30496 0.5 11.1111 0.5H88.8889ZM21.5556 32.9333C24.1716 32.9333 26.6753 31.8419 28.5173 29.9078C30.3585 27.9745 31.3889 25.3574 31.3889 22.6333C31.3889 16.9594 27.0248 12.275 21.5556 12.275C18.9248 12.275 16.407 13.3726 14.5545 15.3176C12.7029 17.2618 11.6667 19.8938 11.6667 22.6333C11.6667 28.3152 16.0938 32.9333 21.5556 32.9333Z" fill="#1C1C1C" stroke="#ECFF9F"/>
</svg>
