<svg width="100" height="105" viewBox="0 0 100 105" fill="none" xmlns="http://www.w3.org/2000/svg">
<path d="M79.0113 21.824L79.013 21.8258C86.7136 29.9114 90.9584 40.6807 90.9584 52.1498C90.9584 75.7844 72.6179 95.006 50.1667 95.006C43.339 95.006 36.6327 93.1922 30.665 89.7783L30.4844 89.6749L30.2837 89.7303L9.24306 95.5375L14.8591 73.8878L14.9087 73.6963L14.8139 73.5227C11.2708 67.0338 9.37508 59.6787 9.37508 52.106C9.37508 28.4714 27.7156 9.24977 50.1667 9.24978L50.1686 9.24977C55.5283 9.23016 60.8388 10.3313 65.7905 12.4896C70.7422 14.6479 75.2367 17.8207 79.0113 21.824ZM32.4002 83.5478L32.4033 83.5497C37.7723 86.8789 43.9049 88.656 50.1667 88.656C69.3803 88.656 84.9997 72.2673 84.9168 52.1504C84.9336 47.3503 84.0431 42.5939 82.2961 38.1566C80.5492 33.7194 77.9804 29.6888 74.7374 26.299C68.1873 19.3774 59.4324 15.556 50.1251 15.556C30.9096 15.556 15.2917 31.9906 15.2917 52.106V52.1064C15.2966 58.9731 17.1395 65.7017 20.6123 71.5246L20.6123 71.5247L20.6157 71.5303L21.3376 72.7051L17.9328 85.7989L17.7149 86.6371L18.5498 86.4068L31.337 82.878L32.4002 83.5478ZM39.6422 50.0226L39.6457 50.029L39.6493 50.0353C40.2772 51.1341 42.3495 54.7345 45.4913 57.6769C48.9067 60.8816 51.907 62.234 53.3279 62.8745C53.5602 62.9792 53.7502 63.0648 53.893 63.1365C54.444 63.4363 54.9709 63.6131 55.4824 63.5508C56.0175 63.4856 56.4259 63.1745 56.7638 62.7456C57.3511 62.0403 59.315 59.5845 60.042 58.4633C60.3447 58.0158 60.5738 57.9176 60.7559 57.8964C60.9921 57.8689 61.284 57.9488 61.7735 58.1271C62.4721 58.4301 65.4669 59.9621 67.3667 60.934C67.9992 61.2576 68.5104 61.5191 68.775 61.6525C69.0019 61.7668 69.1986 61.8619 69.3733 61.9464C69.6253 62.0682 69.8315 62.168 70.0166 62.2714C70.3147 62.438 70.4525 62.561 70.5308 62.6902C70.5294 62.6878 70.5463 62.7179 70.5667 62.8032C70.5858 62.883 70.6032 62.991 70.6153 63.128C70.6396 63.402 70.6406 63.7654 70.6058 64.2014C70.5363 65.0722 70.3263 66.2011 69.9024 67.4305L69.9023 67.4305L69.9 67.4375C69.5366 68.5443 68.4131 69.6794 67.0537 70.5971C65.704 71.5081 64.2435 72.1232 63.3423 72.2616C61.5873 72.5186 59.4278 72.6398 57.0769 71.8449L57.0769 71.8448L57.0695 71.8424C55.5806 71.3647 53.6848 70.7156 51.2517 69.5897L51.2481 69.5881C41.5145 65.1785 34.946 55.1092 33.9358 53.5606C33.8892 53.4892 33.8544 53.4358 33.8317 53.4021L33.8277 53.3962L33.8236 53.3904L33.8155 53.3791C33.5569 53.0171 32.5359 51.5879 31.5752 49.6023C30.6009 47.5887 29.7084 45.0425 29.7084 42.481C29.7084 37.7448 31.8725 35.2502 32.9309 34.0302C33.0194 33.9282 33.1001 33.8351 33.1712 33.7504C34.0215 32.7823 34.9586 32.5685 35.5417 32.5685H37.5248C37.6454 32.5764 37.7463 32.5779 37.8354 32.5792C38.0582 32.5823 38.2069 32.5845 38.4051 32.6845C38.6489 32.8075 39.0134 33.1351 39.4091 34.1311C40.2381 36.307 42.3292 41.6665 42.5903 42.2147C42.8072 42.6702 42.9176 43.1174 42.671 43.6716C42.6441 43.7281 42.6182 43.7828 42.593 43.8359C42.3029 44.4478 42.1137 44.847 41.6961 45.3586C41.522 45.5718 41.3458 45.7956 41.1718 46.0164C40.8189 46.4646 40.4755 46.9006 40.1797 47.2112C39.9188 47.4851 39.5782 47.8438 39.4176 48.3129C39.2434 48.822 39.3007 49.3823 39.6422 50.0226Z" fill="#1C1C1C" stroke="#ECFF9F"/>
</svg>
