<svg width="38" height="94" viewBox="0 0 38 94" fill="none" xmlns="http://www.w3.org/2000/svg">
<path d="M5.04 41H0.48L3.072 11.864H2.208L2.688 7.4H11.472L14.448 41H9.888L9.36 35.24H5.568L5.04 41ZM5.952 30.776H8.976L7.488 14.072L5.952 30.776ZM25.9463 7.4H30.5063V41H25.9463L20.6663 20.456V41H16.1063V11.864H15.3863L15.8663 7.4H20.9062L26.2343 28.76L25.9463 7.4Z" fill="url(#paint0_linear_6_350)"/>
<path d="M0.64 45.152L1.28 39.2H11.392C13.184 39.2 14.6347 39.7547 15.744 40.864C16.8533 41.9307 17.408 43.36 17.408 45.152V65.184C17.408 66.976 16.7253 68.4267 15.36 69.536C14.0373 70.6027 12.48 71.136 10.688 71.136H7.68V84H1.6V45.152H0.64ZM11.008 45.152H7.68V65.184H11.008C11.2213 65.184 11.328 65.0773 11.328 64.864V45.472C11.328 45.2587 11.2213 45.152 11.008 45.152ZM24.1575 84H18.0775L21.5335 45.152H20.3815L21.0215 39.2H32.7335L36.7015 84H30.6215L29.9175 76.32H24.8615L24.1575 84ZM25.3735 70.368H29.4055L27.4215 48.096L25.3735 70.368Z" fill="#ECFF9F"/>
<defs>
<linearGradient id="paint0_linear_6_350" x1="16" y1="0" x2="16" y2="49" gradientUnits="userSpaceOnUse">
<stop offset="0.416772" stop-color="white"/>
<stop offset="1" stop-color="#222222"/>
</linearGradient>
</defs>
</svg>
