<svg width="100" height="150" viewBox="0 0 100 150" fill="none" xmlns="http://www.w3.org/2000/svg">
<path d="M0 20C0 8.95429 8.95431 0 20 0H80C91.0457 0 100 8.95431 100 20V141.964H0V20Z" fill="#1D1D1D"/>
<path d="M0 141.964H100V141.964C100 146.402 96.4023 150 91.9643 150H8.03571C3.59771 150 0 146.402 0 141.964V141.964Z" fill="#ECFF9F"/>
<path d="M22.9053 16.4231L27.745 67.6508L50.5083 73.9048L73.4095 67.6537L78.1112 16.4231H22.9053ZM65.9935 33.8056H41.5373L42.0648 39.5997H65.6715L63.7516 58.4681L50.7291 62.4372L37.5993 58.2554L36.716 49.8286H42.9236L43.4143 53.884L50.7751 56.2263L57.9703 54.0334L58.8812 45.3968H36.4491L34.7255 28.0085H66.6591L65.9935 33.8056Z" fill="url(#paint0_linear_31_5)"/>
<path d="M65.9935 34.3056H66.4394L66.4903 33.8626L67.1558 28.0656L67.2198 27.5085H66.6591H34.7255H34.1735L34.2279 28.0579L35.9516 45.4461L35.9963 45.8968H36.4491H58.3257L57.5078 53.6517L50.7783 55.7026L43.8721 53.5049L43.42 49.7686L43.3667 49.3286H42.9236H36.716H36.1608L36.2187 49.8807L37.102 58.3076L37.1361 58.6327L37.4475 58.7319L50.5773 62.9137L50.7258 62.9609L50.8749 62.9155L63.8973 58.9464L64.2153 58.8495L64.249 58.5187L66.1689 39.6504L66.225 39.0997H65.6715H42.5214L42.0849 34.3056H65.9935ZM28.2103 67.2601L23.4547 16.9231H77.5633L72.9433 67.2627L50.5087 73.3864L28.2103 67.2601Z" stroke="#ECFF9F" stroke-opacity="0.3"/>
<line x1="19.3799" y1="84.354" x2="85.1572" y2="84.354" stroke="#D2D2D2" stroke-opacity="0.7"/>
<ellipse cx="18.4992" cy="84.5804" rx="0.293649" ry="0.273723" fill="#D9D9D9"/>
<ellipse cx="17.3249" cy="84.5804" rx="0.293649" ry="0.273723" fill="#ECFF9F"/>
<ellipse cx="87.2126" cy="84.5804" rx="0.293649" ry="0.273723" fill="#ECFF9F"/>
<ellipse cx="86.0383" cy="84.5804" rx="0.293649" ry="0.273723" fill="white"/>
<path d="M0 20C0 8.95429 8.95431 0 20 0H80C91.0457 0 100 8.95431 100 20V141.964H0V20Z" fill="#1D1D1D"/>
<path d="M0 141.964H100V141.964C100 146.402 96.4023 150 91.9643 150H8.03571C3.59771 150 0 146.402 0 141.964V141.964Z" fill="#ECFF9F"/>
<line x1="19.3799" y1="84.354" x2="85.1572" y2="84.354" stroke="#D2D2D2" stroke-opacity="0.7"/>
<ellipse cx="18.4992" cy="84.5804" rx="0.293649" ry="0.273723" fill="#D9D9D9"/>
<ellipse cx="17.3249" cy="84.5804" rx="0.293649" ry="0.273723" fill="#ECFF9F"/>
<ellipse cx="87.2126" cy="84.5804" rx="0.293649" ry="0.273723" fill="#ECFF9F"/>
<ellipse cx="86.0383" cy="84.5804" rx="0.293649" ry="0.273723" fill="white"/>
<defs>
<linearGradient id="paint0_linear_31_5" x1="50.5083" y1="16.4231" x2="50.5083" y2="73.9048" gradientUnits="userSpaceOnUse">
<stop offset="0.676984" stop-color="#333333"/>
<stop offset="1" stop-color="#222222"/>
</linearGradient>
</defs>
</svg>
