<svg width="1920" height="1080" viewBox="0 0 1920 1080" fill="none" xmlns="http://www.w3.org/2000/svg">
<rect width="1920" height="1080" fill="#222222"/>
<path d="M1651.58 544.944C1649.64 544.197 1647.8 543.824 1646.08 543.824C1644.37 543.824 1643.04 544.187 1642.08 544.912C1641.12 545.637 1640.64 546.64 1640.64 547.92C1640.64 549.477 1641.45 550.683 1643.07 551.536C1643.79 551.899 1644.58 552.24 1645.44 552.56C1646.31 552.859 1647.18 553.2 1648.06 553.584C1648.93 553.968 1649.73 554.405 1650.46 554.896C1651.18 555.387 1651.77 556.069 1652.22 556.944C1652.67 557.797 1652.89 558.896 1652.89 560.24C1652.89 561.563 1652.52 562.693 1651.77 563.632C1651.02 564.571 1650.12 565.211 1649.05 565.552C1648.01 565.872 1646.78 566.032 1645.37 566.032C1642.75 566.032 1640.51 565.381 1638.65 564.08L1638.81 563.824C1639.52 564.379 1640.42 564.837 1641.53 565.2C1642.66 565.541 1643.81 565.712 1644.99 565.712C1646.72 565.712 1648.19 565.317 1649.4 564.528C1650.64 563.717 1651.26 562.533 1651.26 560.976C1651.26 559.269 1650.45 557.936 1648.83 556.976C1648.1 556.549 1647.3 556.155 1646.43 555.792C1645.57 555.429 1644.71 555.056 1643.84 554.672C1642.96 554.267 1642.16 553.819 1641.44 553.328C1639.81 552.261 1639 550.747 1639 548.784C1639 547.227 1639.53 545.968 1640.57 545.008C1641.62 544.027 1643.18 543.536 1645.28 543.536C1647.39 543.536 1649.53 543.899 1651.71 544.624L1651.58 544.944ZM1666.77 566.128C1662.78 566.128 1659.82 564.997 1657.9 562.736C1657.22 561.925 1656.67 560.848 1656.24 559.504C1655.81 558.16 1655.6 556.528 1655.6 554.608C1655.6 552.688 1655.91 550.971 1656.53 549.456C1657.17 547.92 1658.03 546.736 1659.12 545.904C1661.23 544.347 1663.78 543.568 1666.77 543.568C1667.62 543.568 1668.45 543.643 1669.26 543.792C1670.07 543.92 1670.68 544.059 1671.09 544.208L1671.66 544.432L1671.57 544.752C1670.12 544.176 1668.52 543.888 1666.77 543.888C1664.51 543.888 1662.62 544.624 1661.1 546.096C1659.95 547.184 1659.14 548.784 1658.67 550.896C1658.39 552.091 1658.26 553.552 1658.26 555.28C1658.26 557.008 1658.5 558.608 1658.99 560.08C1659.48 561.531 1660.04 562.608 1660.66 563.312C1661.3 564.016 1662.06 564.581 1662.96 565.008C1663.86 565.413 1664.57 565.648 1665.1 565.712C1665.64 565.776 1666.28 565.808 1667.02 565.808C1667.79 565.808 1668.66 565.733 1669.62 565.584C1670.58 565.435 1671.3 565.296 1671.79 565.168L1672.53 564.944L1672.62 565.264C1671 565.84 1669.05 566.128 1666.77 566.128ZM1675.99 543.856C1678.46 543.685 1680.65 543.6 1682.55 543.6C1687.82 543.6 1690.45 545.36 1690.45 548.88C1690.45 550.373 1690.09 551.707 1689.37 552.88C1688.64 554.053 1687.39 554.832 1685.62 555.216L1692.02 566H1689.05L1682.77 555.408H1678.65V566H1675.99V543.856ZM1682.55 543.92C1681.31 543.92 1680.01 543.995 1678.65 544.144V555.088H1683.38C1686.39 554.96 1687.89 552.912 1687.89 548.944C1687.89 547.323 1687.45 546.085 1686.55 545.232C1685.65 544.357 1684.32 543.92 1682.55 543.92ZM1693.6 555.344C1693.6 551.461 1694.54 548.517 1696.42 546.512C1698.31 544.485 1700.75 543.472 1703.71 543.472C1706.68 543.472 1709.03 544.347 1710.78 546.096C1712.55 547.845 1713.44 550.64 1713.44 554.48C1713.44 558.32 1712.5 561.221 1710.62 563.184C1708.75 565.147 1706.24 566.128 1703.1 566.128C1700.39 566.128 1698.18 565.349 1696.45 563.792C1695.55 562.981 1694.85 561.861 1694.34 560.432C1693.85 558.981 1693.6 557.285 1693.6 555.344ZM1703.62 543.792C1701.46 543.792 1699.69 544.752 1698.3 546.672C1696.94 548.592 1696.26 551.408 1696.26 555.12C1696.26 558.832 1696.91 561.541 1698.21 563.248C1699.51 564.955 1701.24 565.808 1703.39 565.808C1705.57 565.808 1707.34 564.848 1708.7 562.928C1710.09 560.987 1710.78 558.181 1710.78 554.512C1710.78 550.821 1710.12 548.112 1708.8 546.384C1707.5 544.656 1705.77 543.792 1703.62 543.792ZM1729.12 566H1716.96V543.6H1719.61V565.68H1729.12V566ZM1744.49 566H1732.33V543.6H1734.99V565.68H1744.49V566Z" fill="white"/>
<path d="M1877.36 555.354C1877.55 555.158 1877.55 554.842 1877.36 554.646L1874.18 551.464C1873.98 551.269 1873.66 551.269 1873.47 551.464C1873.27 551.66 1873.27 551.976 1873.47 552.172L1876.3 555L1873.47 557.828C1873.27 558.024 1873.27 558.34 1873.47 558.536C1873.66 558.731 1873.98 558.731 1874.18 558.536L1877.36 555.354ZM1759 555.5H1877V554.5H1759V555.5Z" fill="white"/>
<path d="M454 952H1466" stroke="#D2D2D2" stroke-opacity="0.7"/>
<circle cx="445.5" cy="951.5" r="2.5" fill="#D2D2D2" fill-opacity="0.7"/>
<circle cx="437.5" cy="951.5" r="2.5" fill="#ECFF9F"/>
<circle cx="1482.5" cy="951.5" r="2.5" fill="#ECFF9F"/>
<circle cx="1474.5" cy="951.5" r="2.5" fill="#D2D2D2" fill-opacity="0.7"/>
</svg>
