<svg width="100" height="106" viewBox="0 0 100 106" fill="none" xmlns="http://www.w3.org/2000/svg">
<g clip-path="url(#clip0_4_180)">
<path d="M76.5625 0.5H23.4375C10.4933 0.5 0 11.518 0 25.1094V80.8906C0 94.482 10.4933 105.5 23.4375 105.5H76.5625C89.5067 105.5 100 94.482 100 80.8906V25.1094C100 11.518 89.5067 0.5 76.5625 0.5Z" fill="url(#paint0_linear_4_180)"/>
<path d="M23.4375 1H76.5625C89.2078 1 99.5 11.7709 99.5 25.1094V80.8906C99.5 94.2291 89.2078 105 76.5625 105H23.4375C10.7922 105 0.5 94.2291 0.5 80.8906V25.1094C0.5 11.7709 10.7922 1 23.4375 1Z" stroke="#ECFF9F" stroke-opacity="0.3"/>
<mask id="mask0_4_180" style="mask-type:luminance" maskUnits="userSpaceOnUse" x="10" y="22" width="80" height="62">
<path d="M10.9375 52.9813C10.9375 36.0024 24.7016 22.2383 41.6805 22.2383H58.3195C75.2984 22.2383 89.0625 36.0024 89.0625 52.9813C89.0625 69.9603 75.2984 83.7244 58.3195 83.7244H41.6805C24.7016 83.7244 10.9375 69.9603 10.9375 52.9813Z" fill="white"/>
</mask>
<g mask="url(#mask0_4_180)">
<path d="M78.1667 57.5787C77.0569 57.5847 76.0064 57.7026 75.017 57.9091C72.7767 58.3766 69.8048 57.7214 69.5097 55.452C69.3671 54.2991 69.196 53.5953 69.3671 52.2175C69.5382 50.8398 70.3085 48.8785 70.2941 48.7288C70.28 48.5786 70.123 47.8752 68.5542 47.86C66.9855 47.8453 65.6308 48.1746 65.4738 48.609C65.3167 49.0429 65.0175 50.0314 64.8179 51.0498C64.6185 52.1514 63.0145 55.3354 61.5275 58.0567C60.9082 59.1902 59.1239 59.1589 58.9562 57.8781C58.8136 56.7252 58.6425 56.0213 58.8136 54.6436C58.9847 53.2659 59.755 51.3041 59.7406 51.1544C59.7265 51.0047 59.5695 50.3009 58.0007 50.2861C56.432 50.2709 55.0769 50.6003 54.9202 51.0346C54.7632 51.469 54.5921 52.4874 54.264 53.4755C53.9363 54.464 50.1285 63.389 49.13 65.6949C48.7442 66.5873 48.3403 67.4711 47.9187 68.3455C47.8834 68.4186 47.8441 68.5143 47.8038 68.5848C47.6657 68.869 47.5242 69.1513 47.3792 69.4317C47.3769 69.4361 47.3757 69.4409 47.3757 69.4459C47.3757 69.4509 47.3745 69.4559 47.3721 69.4603C47.1595 69.8621 46.9329 70.232 46.8195 70.232C46.7339 70.232 46.5773 69.1541 46.848 67.6866C47.4187 64.5866 48.7734 59.7648 48.7593 59.6003C48.7593 59.5105 49.016 58.6718 47.8749 58.2374C46.7624 57.803 46.3632 58.522 46.2632 58.522C46.2531 58.522 46.1508 58.4737 46.1526 58.4636C46.3512 57.3089 46.8062 53.3557 43.7249 53.3557C42.9476 53.3557 42.0684 53.664 41.1869 54.1638C37.7267 56.1256 35.0213 59.3082 31.5738 61.2922C30.8099 61.7411 30.0222 62.19 29.2748 62.6165C29.1425 62.692 28.9835 62.6605 28.8785 62.5502C24.5144 57.6533 16.4425 54.1945 16.7847 47.6205C16.9132 45.2244 17.6976 38.935 32.2871 31.2979C44.2953 25.0837 53.8507 26.8055 55.505 30.624C57.8722 36.075 50.3851 46.1977 37.9777 47.6652C33.2425 48.2193 30.7613 46.3027 30.1339 45.5841C29.4777 44.8351 29.3777 44.7904 29.1351 44.9401C28.7359 45.1645 28.9925 45.8384 29.1351 46.2276C29.5062 47.246 31.032 49.0429 33.6132 49.9264C35.8953 50.7053 41.4429 51.1397 48.1601 48.4142C55.6761 45.3593 61.5519 36.8683 59.8261 29.7557C58.1007 22.5378 46.6913 20.1569 35.8953 24.185C29.4773 26.5811 22.5179 30.3546 17.5121 35.2662C11.5648 41.1068 10.6238 46.1829 11.0089 48.3092C12.3405 55.5747 21.5757 60.3977 25.8005 63.994C26.0387 64.1968 25.9982 64.566 25.7269 64.7216C23.7445 65.7547 16.1859 69.9027 14.3031 74.2905C12.164 79.262 14.6456 82.8259 16.2855 83.3049C21.3769 84.7876 26.6109 82.122 29.4206 77.7194C32.23 73.3168 31.8878 67.5968 30.5898 64.9763C30.5683 64.9251 30.5766 64.8596 30.6239 64.8306C31.1087 64.533 31.6041 64.2239 32.0874 63.9279C33.0744 63.3155 34.3513 64.3194 34.1796 65.4681C34.08 66.1342 33.9998 66.8675 33.9413 67.6866C33.7277 70.5019 34.8257 74.1556 36.266 75.5932C36.9078 76.2219 37.6636 76.2371 38.1488 76.2371C39.8316 76.2371 40.5874 74.7696 41.4288 73.0326C41.6771 72.5183 43.2966 72.8501 43.4608 73.3969C43.7557 74.3792 44.324 75.1141 45.3648 75.1141C46.5029 75.1141 47.6551 73.5645 48.1707 72.7691C48.1719 72.7673 48.1746 72.7683 48.1746 72.7704C48.1746 72.7726 48.1773 72.7734 48.1785 72.7716C48.1881 72.756 48.2153 72.7107 48.2601 72.6281C48.3519 72.4713 48.4159 72.3631 48.4374 72.3269C48.4425 72.3181 48.4453 72.3082 48.4453 72.298C48.4453 72.2886 48.4474 72.2797 48.4519 72.2714C48.9118 71.4268 49.9358 69.5281 51.4546 66.3835C52.4191 64.3874 53.3665 62.1468 54.0819 60.3807C54.4157 59.5568 55.8333 59.6732 56.0753 60.5285C56.3765 61.5964 56.9652 62.7568 57.4909 63.8978C57.6236 64.1859 57.5938 64.5226 57.4121 64.7827C57.1593 65.1446 56.9985 65.3589 56.9659 65.4021C56.9622 65.4069 56.9627 65.4135 56.9668 65.4179C56.9709 65.4222 56.9713 65.4288 56.9678 65.4336C56.5988 65.9404 56.2015 66.4914 55.7617 67.0275C54.207 68.9745 52.3531 71.2057 52.0964 71.8497C51.7968 72.6134 51.8683 73.1671 52.4386 73.6166C52.8523 73.946 53.5937 73.9907 54.3495 73.946C55.7472 73.841 56.7316 73.4817 57.2163 73.2569C57.9722 72.9727 58.8566 72.5383 59.6835 71.8944C61.2097 70.7115 62.1367 69.0192 62.0511 66.7879C62.0168 65.8061 61.7637 64.8246 61.4232 63.881C61.2637 63.439 61.3016 62.9388 61.566 62.5502C62.6281 60.9203 63.585 59.2207 64.3231 57.8293C64.7877 56.9534 66.3304 57.1488 66.6003 58.1029C67.1556 60.1433 66.8057 62.3051 65.5315 63.9927C64.6751 65.1269 64.1027 66.21 63.8195 67.0426C62.921 69.7681 63.6199 70.9957 64.946 71.2804C65.5453 71.4153 66.4007 71.1159 67.0285 70.8312C67.8269 70.5618 68.7683 70.0975 69.6667 69.4084C71.1925 68.2255 72.6617 66.5783 72.5761 64.3471C72.5032 62.6197 73.1611 60.7733 74.8669 60.4916C76.2159 60.2688 77.7508 60.2245 79.4929 60.4387C86.2816 61.2775 87.6222 65.7248 87.3652 67.5968C87.1085 69.4683 85.6824 70.4867 85.2117 70.8013C84.7413 71.1159 84.5843 71.2205 84.6273 71.4453C84.6843 71.7746 84.9124 71.7594 85.3117 71.6996C85.8679 71.595 88.8769 70.1873 89.0054 66.7432C89.2195 62.3406 85.2261 57.5336 78.1667 57.5787ZM25.798 76.1173C23.5449 78.6927 20.4074 79.6664 19.0523 78.8428C17.5976 77.9589 18.1679 74.1556 20.9351 71.4301C22.6175 69.7681 24.7855 68.2255 26.2257 67.2822C26.5538 67.0726 27.0386 66.7732 27.6234 66.3987C27.6964 66.355 27.7465 66.3272 27.7682 66.3154C27.7764 66.311 27.7843 66.3063 27.792 66.3013C27.9543 66.1947 28.1733 66.2792 28.2165 66.4685C29.0695 70.2035 28.087 73.4966 25.798 76.1173ZM42.1992 64.407C41.4148 66.4139 39.7749 71.5498 38.7765 71.2656C37.921 71.0257 37.3933 67.1325 38.6054 63.284C39.2187 61.3521 40.5163 59.0462 41.2722 58.1476C42.4988 56.71 43.8535 56.2309 44.1816 56.815C44.5953 57.5787 42.6843 63.149 42.1992 64.407ZM55.7335 71.2057C55.4054 71.3854 55.0917 71.5051 54.9492 71.4153C54.7417 71.2911 55.1712 71.0262 55.3308 70.8445C55.8225 70.2846 56.9442 68.9978 57.4593 68.3305C57.8137 67.8613 58.2292 67.3162 58.6714 66.7064C58.7072 66.657 58.7855 66.6822 58.7855 66.7432C58.7855 69.0344 56.6749 70.5765 55.7335 71.2057ZM68.4499 67.1106C67.3798 68.5014 66.0873 67.6638 66.7863 66.0542C67.0099 65.531 67.4512 64.7567 68.1462 63.9265C68.5602 63.4318 69.3605 63.6424 69.339 64.2872C69.3329 65.5339 68.9633 66.4433 68.4499 67.1106Z" fill="#1A1A1A"/>
</g>
</g>
<defs>
<linearGradient id="paint0_linear_4_180" x1="50" y1="0.5" x2="50" y2="105.5" gradientUnits="userSpaceOnUse">
<stop stop-color="#333333"/>
<stop offset="1" stop-color="#222222"/>
</linearGradient>
<clipPath id="clip0_4_180">
<rect width="100" height="105" fill="white" transform="translate(0 0.5)"/>
</clipPath>
</defs>
</svg>
