<svg width="100" height="106" viewBox="0 0 100 106" fill="none" xmlns="http://www.w3.org/2000/svg">
<path d="M50 42.6824C54.7907 42.6824 58.6977 47.268 58.6977 53C58.6977 58.4591 54.7907 63.0993 50 63.0993C45.2093 63.0993 41.3023 58.4591 41.3023 53C41.3023 47.268 45.2093 42.6824 50 42.6824ZM28.4651 96.6725C31.3953 98.747 37.814 95.5807 45.2093 87.3921C42.7907 84.1712 40.4186 80.6775 38.186 77.0199C34.4382 76.5958 30.7121 75.9398 27.0233 75.0546C24.6512 86.737 25.5349 94.7618 28.4651 96.6725ZM31.7674 65.3375L30.4186 62.5534C29.907 64.1365 29.3953 65.7196 29.0698 67.2482C30.3256 67.5757 31.7209 67.8487 33.1628 68.1216L31.7674 65.3375ZM62.186 61.1886L65.9535 53L62.186 44.8114C60.7907 41.9181 59.3023 39.3523 57.9535 36.7866C55.4419 36.6228 52.7907 36.6228 50 36.6228C47.2093 36.6228 44.5581 36.6228 42.0465 36.7866C40.6977 39.3523 39.2093 41.9181 37.814 44.8114L34.0465 53L37.814 61.1886C39.2093 64.0819 40.6977 66.6477 42.0465 69.2134C44.5581 69.3772 47.2093 69.3772 50 69.3772C52.7907 69.3772 55.4419 69.3772 57.9535 69.2134C59.3023 66.6477 60.7907 64.0819 62.186 61.1886ZM50 24.5037C49.1163 25.7047 48.186 26.9603 47.2558 28.4342H52.7442C51.814 26.9603 50.8837 25.7047 50 24.5037ZM50 81.4963C50.8837 80.2953 51.814 79.0397 52.7442 77.5658H47.2558C48.186 79.0397 49.1163 80.2953 50 81.4963ZM71.4884 9.32749C68.6047 7.25304 62.186 10.4193 54.7907 18.6079C57.2093 21.8287 59.5814 25.3225 61.8139 28.9801C65.6279 29.4168 69.3953 30.0719 72.9767 30.9454C75.3488 19.263 74.4651 11.2382 71.4884 9.32749ZM68.2326 40.6625L69.5814 43.4466C70.093 41.8635 70.6047 40.2804 70.9302 38.7518C69.6744 38.4243 68.2791 38.1513 66.8372 37.8784L68.2326 40.6625ZM74.9767 2.17611C81.814 6.76173 82.5581 18.8263 79.6744 32.9106C91.4884 37.0049 100 43.7742 100 53C100 62.2258 91.4884 68.9951 79.6744 73.0894C82.5581 87.1737 81.814 99.2383 74.9767 103.824C68.1861 108.409 58.9302 103.169 50 93.1787C41.0698 103.169 31.814 108.409 24.9767 103.824C18.186 99.2383 17.4419 87.1737 20.3256 73.0894C8.51163 68.9951 0 62.2258 0 53C0 43.7742 8.51163 37.0049 20.3256 32.9106C17.4419 18.8263 18.186 6.76173 24.9767 2.17611C31.814 -2.4095 41.0698 2.8312 50 12.8213C58.9302 2.8312 68.1861 -2.4095 74.9767 2.17611ZM73.6279 53C75.2093 57.0943 76.6046 61.1886 77.7674 65.3375C87.5349 61.8983 93.0233 56.9851 93.0233 53C93.0233 49.0149 87.5349 44.1017 77.7674 40.6625C76.6046 44.8114 75.2093 48.9057 73.6279 53ZM26.3721 53C24.7907 48.9057 23.3953 44.8114 22.2326 40.6625C12.4651 44.1017 6.97674 49.0149 6.97674 53C6.97674 56.9851 12.4651 61.8983 22.2326 65.3375C23.3953 61.1886 24.7907 57.0943 26.3721 53ZM68.2326 65.3375L66.8372 68.1216C68.2791 67.8487 69.6744 67.5757 70.9302 67.2482C70.6047 65.7196 70.093 64.1365 69.5814 62.5534L68.2326 65.3375ZM54.7907 87.3921C62.186 95.5807 68.6047 98.747 71.4884 96.6725C74.4651 94.7618 75.3488 86.737 72.9767 75.0546C69.3953 75.9281 65.6279 76.5832 61.8139 77.0199C59.5814 80.6775 57.2093 84.1712 54.7907 87.3921ZM31.7674 40.6625L33.1628 37.8784C31.7209 38.1513 30.3256 38.4243 29.0698 38.7518C29.3953 40.2804 29.907 41.8635 30.4186 43.4466L31.7674 40.6625ZM45.2093 18.6079C37.814 10.4193 31.3953 7.25304 28.4651 9.32749C25.5349 11.2382 24.6512 19.263 27.0233 30.9454C30.7121 30.0602 34.4382 29.4042 38.186 28.9801C40.4186 25.3225 42.7907 21.8287 45.2093 18.6079Z" fill="url(#paint0_linear_4_179)"/>
<path d="M45.5804 87.7272L45.8566 87.4214L45.6091 87.0919C43.2004 83.8841 40.8372 80.4036 38.6128 76.7594L38.4854 76.5506L38.2423 76.523C34.5149 76.1013 30.809 75.4489 27.1399 74.5684L26.6363 74.4476L26.5333 74.9551C25.3413 80.8253 24.9619 85.801 25.2573 89.5671C25.405 91.4495 25.7226 93.0472 26.2027 94.3093C26.6793 95.5619 27.333 96.5278 28.184 97.0861C29.9013 98.2951 32.482 97.8891 35.3995 96.3214C38.3633 94.7287 41.8609 91.8457 45.5804 87.7272ZM30.8686 62.3354L30.3257 61.2148L29.9428 62.3996L29.9384 62.4133C29.4299 63.9868 28.9117 65.5903 28.5807 67.144L28.4812 67.6114L28.9436 67.732C30.218 68.0644 31.629 68.3401 33.0698 68.6129L34.0625 68.8008L33.6098 67.8976L32.2174 65.1195L32.2144 65.1135L30.8686 62.3354ZM62.6364 61.4058L62.6365 61.4058L62.6403 61.3976L66.4077 53.209L66.5039 53L66.4077 52.791L62.6403 44.6024L62.6403 44.6024L62.6364 44.5942C61.7101 42.6735 60.7372 40.8855 59.798 39.1594C59.3183 38.2779 58.8475 37.4126 58.3961 36.5539L58.2657 36.3059L57.986 36.2876C55.4581 36.1228 52.7934 36.1228 50.0098 36.1228H50H49.9902C47.2066 36.1228 44.5419 36.1228 42.014 36.2876L41.7343 36.3059L41.6039 36.5539C41.1525 37.4126 40.6817 38.2779 40.202 39.1594C39.2628 40.8855 38.2899 42.6735 37.3636 44.5942L37.3635 44.5942L37.3597 44.6024L33.5923 52.791L33.4961 53L33.5923 53.209L37.3597 61.3976L37.3596 61.3976L37.3636 61.4058C38.2899 63.3265 39.2628 65.1145 40.2021 66.8407C40.6817 67.7221 41.1526 68.5875 41.6039 69.4461L41.7343 69.6941L42.014 69.7124C44.5419 69.8772 47.2067 69.8772 49.9904 69.8772H50H50.0096C52.7933 69.8772 55.4581 69.8772 57.986 69.7124L58.2657 69.6941L58.3961 69.4461C58.8474 68.5875 59.3183 67.7221 59.7979 66.8407C60.7372 65.1145 61.7101 63.3265 62.6364 61.4058ZM50.4027 24.2074L50 23.66L49.5973 24.2073L49.4942 24.3474C48.6421 25.5051 47.7377 26.7338 46.833 28.1674L46.349 28.9342H47.2558H52.7442H53.651L53.167 28.1674C52.2623 26.7338 51.3579 25.5051 50.5059 24.3476L50.4027 24.2074ZM49.5973 81.7926L50 82.34L50.4027 81.7926L50.5057 81.6527C51.3578 80.4951 52.2622 79.2663 53.167 77.8326L53.651 77.0658H52.7442H47.2558H46.349L46.833 77.8326C47.7378 79.2663 48.6423 80.4951 49.4944 81.6528L49.5973 81.7926ZM54.4196 18.2728L54.1434 18.5786L54.3909 18.9081C56.7996 22.1159 59.1628 25.5964 61.3872 29.2406L61.5144 29.4491L61.7571 29.4769C65.5522 29.9114 69.299 30.5631 72.8583 31.4311L73.3633 31.5543L73.4667 31.0449C74.6586 25.1748 75.0382 20.1987 74.7368 16.4322C74.5861 14.5494 74.264 12.9511 73.7768 11.6885C73.2936 10.4363 72.6312 9.47156 71.7696 8.91392C70.0734 7.70318 67.5019 8.1133 64.5944 9.67881C61.6366 11.2714 58.1391 14.1543 54.4196 18.2728ZM69.1314 43.6646L69.6743 44.7852L70.0572 43.6004L70.0617 43.5863C70.5702 42.0129 71.0883 40.4096 71.4193 38.856L71.5188 38.3886L71.0564 38.268C69.782 37.9356 68.371 37.6599 66.9302 37.3871L65.9375 37.1992L66.3902 38.1024L67.7826 40.8805L67.7856 40.8865L69.1314 43.6646ZM74.6969 2.59049L74.6982 2.59137C77.9455 4.76927 79.8033 8.76229 80.4749 14.0444C81.1456 19.3194 80.6205 25.7971 79.1846 32.8103L79.0967 33.2396L79.5107 33.3831C85.3788 35.4167 90.3903 38.1032 93.9267 41.3969C97.4561 44.6842 99.5 48.5582 99.5 53C99.5 57.4418 97.4561 61.3158 93.9267 64.6031C90.3903 67.8968 85.3788 70.5833 79.5107 72.6169L79.0967 72.7604L79.1846 73.1897C80.6205 80.2029 81.1456 86.6806 80.4749 91.9556C79.8033 97.2377 77.9455 101.231 74.6982 103.409L74.6969 103.41C71.4945 105.572 67.6815 105.454 63.5012 103.514C59.3099 101.569 54.8168 97.8169 50.3728 92.8455L50 92.4285L49.6272 92.8455C45.1832 97.8169 40.6901 101.569 36.4933 103.514C32.3077 105.453 28.482 105.573 25.2555 103.409C22.0317 101.231 20.1852 97.2385 19.5193 91.9561C18.8543 86.6808 19.3795 80.2029 20.8154 73.1897L20.9033 72.7604L20.4893 72.6169C14.6212 70.5833 9.60967 67.8968 6.07334 64.6031C2.54389 61.3158 0.5 57.4418 0.5 53C0.5 48.5582 2.54389 44.6842 6.07334 41.3969C9.60967 38.1032 14.6212 35.4167 20.4893 33.3831L20.9033 33.2396L20.8154 32.8103C19.3795 25.7971 18.8543 19.3192 19.5193 14.0439C20.1853 8.76124 22.0319 4.76833 25.2561 2.59082C28.4825 0.427363 32.308 0.546894 36.4933 2.48646C40.6901 4.43142 45.1832 8.1831 49.6272 13.1545L50 13.5715L50.3728 13.1545C54.8168 8.18309 59.3099 4.43132 63.5012 2.48636C67.6815 0.546444 71.4945 0.427966 74.6969 2.59049ZM73.1615 52.8199L73.0919 53L73.1615 53.1801C74.7382 57.2622 76.1282 61.3413 77.286 65.4724L77.43 65.9864L77.9335 65.8091C82.8551 64.0762 86.7265 61.9628 89.3778 59.7579C92.0107 57.5684 93.5233 55.2163 93.5233 53C93.5233 50.7837 92.0107 48.4316 89.3778 46.2421C86.7265 44.0372 82.8551 41.9238 77.9335 40.1909L77.43 40.0136L77.286 40.5276C76.1282 44.6587 74.7382 48.7378 73.1615 52.8199ZM26.8385 53.1802L26.9081 53L26.8385 52.8199C25.2618 48.7378 23.8718 44.6587 22.714 40.5276L22.57 40.0136L22.0665 40.1909C17.1449 41.9238 13.2735 44.0372 10.6222 46.2421C7.98925 48.4316 6.47674 50.7837 6.47674 53C6.47674 55.2163 7.98925 57.5684 10.6222 59.7579C13.2735 61.9628 17.1449 64.0762 22.0665 65.8091L22.57 65.9864L22.714 65.4724C23.8718 61.3413 25.2618 57.2622 26.8385 53.1802ZM66.3902 67.8976L65.9375 68.8008L66.9302 68.6129C68.371 68.3401 69.782 68.0644 71.0564 67.732L71.5188 67.6114L71.4193 67.144C71.0883 65.5904 70.5702 63.987 70.0617 62.4137L70.0572 62.3996L69.6743 61.2148L69.1314 62.3354L67.7856 65.1135L67.7826 65.1195L66.3902 67.8976ZM54.3909 87.0919L54.1434 87.4214L54.4196 87.7272C58.1391 91.8457 61.6366 94.7286 64.5944 96.3212C67.5019 97.8867 70.0735 98.2968 71.7697 97.086C72.6312 96.5284 73.2936 95.5637 73.7768 94.3115C74.264 93.0489 74.5861 91.4506 74.7368 89.5678C75.0382 85.8013 74.6586 80.8252 73.4667 74.9551L73.3633 74.4457L72.8583 74.5689C69.299 75.4369 65.5522 76.0885 61.7571 76.5231L61.5144 76.5509L61.3872 76.7594C59.1628 80.4036 56.7996 83.8841 54.3909 87.0919ZM33.6098 38.1024L34.0625 37.1992L33.0698 37.3871C31.629 37.6599 30.218 37.9356 28.9436 38.268L28.4812 38.3886L28.5807 38.856C28.9117 40.4097 29.4299 42.0132 29.9384 43.5867L29.9428 43.6004L30.3257 44.7851L30.8686 43.6646L32.2144 40.8865L32.2174 40.8805L33.6098 38.1024ZM45.6091 18.9081L45.8566 18.5786L45.5804 18.2728C41.8609 14.1543 38.3633 11.2713 35.3995 9.67861C32.482 8.11089 29.9013 7.70486 28.184 8.9139C27.333 9.47217 26.6793 10.4381 26.2027 11.6907C25.7226 12.9528 25.405 14.5505 25.2573 16.4329C24.9619 20.199 25.3413 25.1747 26.5333 31.0449L26.6363 31.5524L27.1399 31.4316C30.809 30.5511 34.5149 29.8987 38.2423 29.4769L38.4854 29.4494L38.6128 29.2406C40.8372 25.5964 43.2004 22.1159 45.6091 18.9081ZM50 43.1824C54.4393 43.1824 58.1977 47.4623 58.1977 53C58.1977 58.2592 54.444 62.5993 50 62.5993C45.556 62.5993 41.8023 58.2592 41.8023 53C41.8023 47.4623 45.5607 43.1824 50 43.1824Z" stroke="#ECFF9F" stroke-opacity="0.3"/>
<defs>
<linearGradient id="paint0_linear_4_179" x1="50" y1="0.5" x2="50" y2="105.5" gradientUnits="userSpaceOnUse">
<stop offset="0.689811" stop-color="#333333"/>
<stop offset="1" stop-color="#222222"/>
</linearGradient>
</defs>
</svg>
