<svg width="100" height="106" viewBox="0 0 100 106" fill="none" xmlns="http://www.w3.org/2000/svg">
<mask id="path-1-inside-1_4_189" fill="white">
<path d="M98.1071 48.3209L54.4438 2.48099C53.846 1.85296 53.1362 1.35476 52.3549 1.01486C51.5737 0.67495 50.7363 0.5 49.8906 0.5C49.045 0.5 48.2076 0.67495 47.4263 1.01486C46.6451 1.35476 45.9352 1.85296 45.3374 2.48099L36.2748 11.9968L47.775 24.072C49.1313 23.5858 50.5904 23.5097 51.9859 23.8525C53.3814 24.1952 54.657 24.9431 55.6672 26.0105C56.6773 27.078 57.3813 28.4222 57.6988 29.8897C58.0163 31.3571 57.9344 32.8887 57.4626 34.3097L68.5441 45.9518C70.1836 45.3456 71.9707 45.3438 73.6114 45.9465C75.252 46.5493 76.6482 47.7207 77.5701 49.2678C78.492 50.815 78.8847 52.6457 78.6835 54.4585C78.4822 56.2712 77.6991 57.958 76.463 59.241C75.2116 60.563 73.5619 61.3878 71.7957 61.5746C70.0295 61.7613 68.2563 61.2983 66.7791 60.2648C65.3019 59.2312 64.2122 57.6912 63.6963 55.9078C63.1803 54.1244 63.2701 52.2082 63.9502 50.4865L53.6188 39.632V68.199C55.1892 69.0152 56.4457 70.3719 57.179 72.0429C57.9122 73.714 58.0779 75.5984 57.6483 77.3821C57.2187 79.1658 56.2199 80.7411 54.8184 81.8453C53.4168 82.9495 51.6971 83.516 49.946 83.4504C48.1949 83.3847 46.5181 82.6908 45.1951 81.4844C43.8721 80.278 42.9829 78.632 42.6756 76.8206C42.3683 75.0093 42.6616 73.1421 43.5065 71.5302C44.3514 69.9184 45.6969 68.6593 47.3187 67.9628V39.1332C46.383 38.7306 45.5324 38.1375 44.816 37.3882C44.0996 36.6388 43.5316 35.7479 43.1447 34.767C42.7577 33.786 42.5595 32.7343 42.5615 31.6725C42.5634 30.6108 42.7655 29.5599 43.1561 28.5805L31.8247 16.6759L1.88666 48.1109C1.28853 48.7386 0.814058 49.4839 0.490339 50.3042C0.166619 51.1245 0 52.0038 0 52.8917C0 53.7797 0.166619 54.6589 0.490339 55.4792C0.814058 56.2996 1.28853 57.0449 1.88666 57.6726L45.5499 103.519C46.1478 104.147 46.8576 104.645 47.6388 104.985C48.4201 105.325 49.2575 105.5 50.1031 105.5C50.9488 105.5 51.7862 105.325 52.5674 104.985C53.3487 104.645 54.0585 104.147 54.6563 103.519L98.1133 57.8891C98.7115 57.2614 99.1859 56.5161 99.5097 55.6958C99.8334 54.8755 100 53.9962 100 53.1083C100 52.2203 99.8334 51.3411 99.5097 50.5208C99.1859 49.7005 98.7115 48.9551 98.1133 48.3274"/>
</mask>
<path d="M98.1071 48.3209L54.4438 2.48099C53.846 1.85296 53.1362 1.35476 52.3549 1.01486C51.5737 0.67495 50.7363 0.5 49.8906 0.5C49.045 0.5 48.2076 0.67495 47.4263 1.01486C46.6451 1.35476 45.9352 1.85296 45.3374 2.48099L36.2748 11.9968L47.775 24.072C49.1313 23.5858 50.5904 23.5097 51.9859 23.8525C53.3814 24.1952 54.657 24.9431 55.6672 26.0105C56.6773 27.078 57.3813 28.4222 57.6988 29.8897C58.0163 31.3571 57.9344 32.8887 57.4626 34.3097L68.5441 45.9518C70.1836 45.3456 71.9707 45.3438 73.6114 45.9465C75.252 46.5493 76.6482 47.7207 77.5701 49.2678C78.492 50.815 78.8847 52.6457 78.6835 54.4585C78.4822 56.2712 77.6991 57.958 76.463 59.241C75.2116 60.563 73.5619 61.3878 71.7957 61.5746C70.0295 61.7613 68.2563 61.2983 66.7791 60.2648C65.3019 59.2312 64.2122 57.6912 63.6963 55.9078C63.1803 54.1244 63.2701 52.2082 63.9502 50.4865L53.6188 39.632V68.199C55.1892 69.0152 56.4457 70.3719 57.179 72.0429C57.9122 73.714 58.0779 75.5984 57.6483 77.3821C57.2187 79.1658 56.2199 80.7411 54.8184 81.8453C53.4168 82.9495 51.6971 83.516 49.946 83.4504C48.1949 83.3847 46.5181 82.6908 45.1951 81.4844C43.8721 80.278 42.9829 78.632 42.6756 76.8206C42.3683 75.0093 42.6616 73.1421 43.5065 71.5302C44.3514 69.9184 45.6969 68.6593 47.3187 67.9628V39.1332C46.383 38.7306 45.5324 38.1375 44.816 37.3882C44.0996 36.6388 43.5316 35.7479 43.1447 34.767C42.7577 33.786 42.5595 32.7343 42.5615 31.6725C42.5634 30.6108 42.7655 29.5599 43.1561 28.5805L31.8247 16.6759L1.88666 48.1109C1.28853 48.7386 0.814058 49.4839 0.490339 50.3042C0.166619 51.1245 0 52.0038 0 52.8917C0 53.7797 0.166619 54.6589 0.490339 55.4792C0.814058 56.2996 1.28853 57.0449 1.88666 57.6726L45.5499 103.519C46.1478 104.147 46.8576 104.645 47.6388 104.985C48.4201 105.325 49.2575 105.5 50.1031 105.5C50.9488 105.5 51.7862 105.325 52.5674 104.985C53.3487 104.645 54.0585 104.147 54.6563 103.519L98.1133 57.8891C98.7115 57.2614 99.1859 56.5161 99.5097 55.6958C99.8334 54.8755 100 53.9962 100 53.1083C100 52.2203 99.8334 51.3411 99.5097 50.5208C99.1859 49.7005 98.7115 48.9551 98.1133 48.3274" fill="url(#paint0_linear_4_189)"/>
<path d="M54.4438 2.48099L53.7195 3.17047L53.7197 3.1707L54.4438 2.48099ZM49.8906 0.5V-0.5V0.5ZM45.3374 2.48099L46.0616 3.17065L46.0617 3.17047L45.3374 2.48099ZM36.2748 11.9968L35.5506 11.3071L34.8938 11.9968L35.5506 12.6864L36.2748 11.9968ZM47.775 24.072L47.0508 24.7617L47.4997 25.233L48.1124 25.0133L47.775 24.072ZM57.4626 34.3097L56.5136 33.9946L56.3244 34.5643L56.7383 34.9991L57.4626 34.3097ZM68.5441 45.9518L67.8197 46.6412L68.2735 47.1179L68.8908 46.8897L68.5441 45.9518ZM76.463 59.241L75.7428 58.5472L75.7367 58.5536L76.463 59.241ZM63.9502 50.4865L64.8803 50.8539L65.115 50.2598L64.6746 49.7971L63.9502 50.4865ZM53.6188 39.632L54.3432 38.9425L52.6188 37.1309V39.632H53.6188ZM53.6188 68.199H52.6188V68.8063L53.1576 69.0863L53.6188 68.199ZM47.3187 67.9628L47.7133 68.8816L48.3187 68.6216V67.9628H47.3187ZM47.3187 39.1332H48.3187V38.4748L47.7139 38.2146L47.3187 39.1332ZM43.1561 28.5805L44.085 28.9509L44.3225 28.3554L43.8805 27.8911L43.1561 28.5805ZM31.8247 16.6759L32.549 15.9865L31.8249 15.2257L31.1005 15.9863L31.8247 16.6759ZM1.88666 48.1109L2.61063 48.8007L2.6108 48.8005L1.88666 48.1109ZM0 52.8917H-1H0ZM1.88666 57.6726L2.6108 56.9829L2.61063 56.9827L1.88666 57.6726ZM45.5499 103.519L46.2742 102.83L46.2741 102.829L45.5499 103.519ZM54.6563 103.519L53.9322 102.829L53.932 102.83L54.6563 103.519ZM98.1133 57.8891L97.3894 57.1993L97.3892 57.1995L98.1133 57.8891ZM98.8312 47.6312L55.1679 1.79128L53.7197 3.1707L97.383 49.0106L98.8312 47.6312ZM55.1681 1.79151C54.4798 1.06843 53.6599 0.492076 52.7539 0.097884L51.956 1.93183C52.6125 2.21745 53.2122 2.63749 53.7195 3.17047L55.1681 1.79151ZM52.7539 0.097884C51.8477 -0.296365 50.8746 -0.5 49.8906 -0.5V1.5C50.598 1.5 51.2996 1.64627 51.956 1.93183L52.7539 0.097884ZM49.8906 -0.5C48.9066 -0.5 47.9335 -0.296365 47.0274 0.097884L47.8253 1.93183C48.4816 1.64627 49.1833 1.5 49.8906 1.5V-0.5ZM47.0274 0.097884C46.1213 0.492075 45.3014 1.06843 44.6131 1.79151L46.0617 3.17047C46.5691 2.63749 47.1688 2.21745 47.8253 1.93183L47.0274 0.097884ZM44.6133 1.79134L35.5506 11.3071L36.9989 12.6864L46.0616 3.17065L44.6133 1.79134ZM35.5506 12.6864L47.0508 24.7617L48.4991 23.3823L36.9989 11.3071L35.5506 12.6864ZM48.1124 25.0133C49.2843 24.5932 50.5432 24.5278 51.7474 24.8236L52.2245 22.8813C50.6377 22.4916 48.9782 22.5783 47.4375 23.1307L48.1124 25.0133ZM51.7474 24.8236C52.952 25.1195 54.0595 25.7665 54.9408 26.6979L56.3935 25.3232C55.2546 24.1196 53.8109 23.271 52.2245 22.8813L51.7474 24.8236ZM54.9408 26.6979C55.8226 27.6297 56.4417 28.8082 56.7214 30.1011L58.6762 29.6782C58.3209 28.0362 57.5321 26.5264 56.3935 25.3232L54.9408 26.6979ZM56.7214 30.1011C57.0011 31.3942 56.9288 32.7439 56.5136 33.9946L58.4117 34.6248C58.94 33.0335 59.0314 31.32 58.6762 29.6782L56.7214 30.1011ZM56.7383 34.9991L67.8197 46.6412L69.2684 45.2623L58.187 33.6202L56.7383 34.9991ZM68.8908 46.8897C70.3072 46.3661 71.8492 46.3645 73.2665 46.8852L73.9562 45.0079C72.0923 44.3231 70.0599 44.3252 68.1973 45.0138L68.8908 46.8897ZM73.2665 46.8852C74.6848 47.4063 75.9026 48.4231 76.7111 49.7797L78.4291 48.756C77.3937 47.0183 75.8191 45.6923 73.9562 45.0079L73.2665 46.8852ZM76.7111 49.7797C77.5199 51.1372 77.8671 52.7489 77.6896 54.3481L79.6774 54.5688C79.9023 52.5424 79.4641 50.4928 78.4291 48.756L76.7111 49.7797ZM77.6896 54.3481C77.5121 55.9471 76.8219 57.4272 75.7428 58.5472L77.1831 59.9349C78.5762 58.4888 79.4524 56.5953 79.6774 54.5688L77.6896 54.3481ZM75.7367 58.5536C74.6447 59.7072 73.2134 60.4191 71.6906 60.5801L71.9008 62.569C73.9104 62.3566 75.7785 61.4188 77.1892 59.9285L75.7367 58.5536ZM71.6906 60.5801C70.1682 60.741 68.6353 60.343 67.3524 59.4454L66.2058 61.0841C67.8774 62.2537 69.8908 62.7815 71.9008 62.569L71.6906 60.5801ZM67.3524 59.4454C66.0683 58.547 65.1114 57.201 64.6569 55.6299L62.7357 56.1857C63.3131 58.1815 64.5355 59.9155 66.2058 61.0841L67.3524 59.4454ZM64.6569 55.6299C64.2022 54.0583 64.2817 52.3691 64.8803 50.8539L63.0202 50.1191C62.2585 52.0472 62.1584 54.1904 62.7357 56.1857L64.6569 55.6299ZM64.6746 49.7971L54.3432 38.9425L52.8945 40.3214L63.2259 51.176L64.6746 49.7971ZM52.6188 39.632V68.199H54.6188V39.632H52.6188ZM53.1576 69.0863C54.5188 69.7938 55.6186 70.9756 56.2632 72.4448L58.0947 71.6411C57.2729 69.7682 55.8596 68.2366 54.08 67.3117L53.1576 69.0863ZM56.2632 72.4448C56.9082 73.9145 57.0548 75.5755 56.6761 77.148L58.6205 77.6162C59.1009 75.6213 58.9163 73.5134 58.0947 71.6411L56.2632 72.4448ZM56.6761 77.148C56.2975 78.7201 55.4194 80.0987 54.1995 81.0598L55.4372 82.6308C57.0204 81.3835 58.14 79.6115 58.6205 77.6162L56.6761 77.148ZM54.1995 81.0598C52.9807 82.0201 51.4927 82.5077 49.9835 82.4511L49.9085 84.4497C51.9016 84.5244 53.8529 83.879 55.4372 82.6308L54.1995 81.0598ZM49.9835 82.4511C48.4741 82.3945 47.0213 81.7964 45.8689 80.7455L44.5213 82.2234C46.0148 83.5852 47.9156 84.3749 49.9085 84.4497L49.9835 82.4511ZM45.8689 80.7455C44.7154 79.6937 43.9325 78.2509 43.6615 76.6534L41.6897 76.9879C42.0332 79.0131 43.0288 80.8624 44.5213 82.2234L45.8689 80.7455ZM43.6615 76.6534C43.3904 75.0556 43.6499 73.4105 44.3922 71.9945L42.6208 71.0659C41.6732 72.8737 41.3462 74.963 41.6897 76.9879L43.6615 76.6534ZM44.3922 71.9945C45.134 70.5792 46.3095 69.4845 47.7133 68.8816L46.9241 67.0439C45.0842 67.834 43.5687 69.2575 42.6208 71.0659L44.3922 71.9945ZM48.3187 67.9628V39.1332H46.3187V67.9628H48.3187ZM47.7139 38.2146C46.9038 37.8661 46.1641 37.3512 45.5389 36.6971L44.0932 38.0792C44.9007 38.9239 45.8622 39.5952 46.9235 40.0518L47.7139 38.2146ZM45.5389 36.6971C44.9135 36.043 44.4152 35.2627 44.0749 34.4L42.2144 35.1339C42.648 36.2332 43.2858 37.2346 44.0932 38.0792L45.5389 36.6971ZM44.0749 34.4C43.7346 33.5373 43.5597 32.6108 43.5615 31.6744L41.5615 31.6707C41.5593 32.8578 41.7808 34.0347 42.2144 35.1339L44.0749 34.4ZM43.5615 31.6744C43.5632 30.738 43.7415 29.8122 44.085 28.9509L42.2273 28.2101C41.7896 29.3076 41.5637 30.4836 41.5615 31.6707L43.5615 31.6744ZM43.8805 27.8911L32.549 15.9865L31.1004 17.3654L42.4318 29.27L43.8805 27.8911ZM31.1005 15.9863L1.16252 47.4212L2.6108 48.8005L32.5488 17.3656L31.1005 15.9863ZM1.16269 47.421C0.474128 48.1437 -0.0696575 48.999 -0.439851 49.9371L1.42053 50.6713C1.69777 49.9687 2.10294 49.3335 2.61063 48.8007L1.16269 47.421ZM-0.439851 49.9371C-0.810022 50.8751 -1 51.879 -1 52.8917H1C1 52.1285 1.14326 51.3739 1.42053 50.6713L-0.439851 49.9371ZM-1 52.8917C-1 53.9044 -0.810022 54.9083 -0.439851 55.8463L1.42053 55.1122C1.14326 54.4095 1 53.6549 1 52.8917H-1ZM-0.439851 55.8463C-0.069657 56.7844 0.474129 57.6398 1.16269 58.3624L2.61063 56.9827C2.10294 56.4499 1.69777 55.8147 1.42053 55.1122L-0.439851 55.8463ZM1.16252 58.3622L44.8258 104.209L46.2741 102.829L2.6108 56.9829L1.16252 58.3622ZM44.8256 104.208C45.5139 104.932 46.3338 105.508 47.2399 105.902L48.0378 104.068C47.3813 103.783 46.7816 103.363 46.2742 102.83L44.8256 104.208ZM47.2399 105.902C48.146 106.296 49.1191 106.5 50.1031 106.5V104.5C49.3958 104.5 48.6941 104.354 48.0378 104.068L47.2399 105.902ZM50.1031 106.5C51.0871 106.5 52.0602 106.296 52.9664 105.902L52.1685 104.068C51.5121 104.354 50.8105 104.5 50.1031 104.5V106.5ZM52.9664 105.902C53.8724 105.508 54.6923 104.932 55.3806 104.208L53.932 102.83C53.4247 103.363 52.825 103.783 52.1685 104.068L52.9664 105.902ZM55.3805 104.209L98.8375 58.5788L97.3892 57.1995L53.9322 102.829L55.3805 104.209ZM98.8373 58.579C99.5259 57.8563 100.07 57.001 100.44 56.0629L98.5795 55.3287C98.3022 56.0313 97.8971 56.6665 97.3894 57.1993L98.8373 58.579ZM100.44 56.0629C100.81 55.1249 101 54.121 101 53.1083H99C99 53.8715 98.8567 54.6261 98.5795 55.3287L100.44 56.0629ZM101 53.1083C101 52.0956 100.81 51.0917 100.44 50.1537L98.5795 50.8878C98.8567 51.5905 99 52.3451 99 53.1083H101ZM100.44 50.1537C100.07 49.2156 99.5259 48.3602 98.8373 47.6376L97.3894 49.0173C97.8971 49.5501 98.3022 50.1853 98.5795 50.8878L100.44 50.1537Z" fill="#ECFF9F" fill-opacity="0.3" mask="url(#path-1-inside-1_4_189)"/>
<defs>
<linearGradient id="paint0_linear_4_189" x1="50" y1="0.5" x2="50" y2="105.5" gradientUnits="userSpaceOnUse">
<stop offset="0.85687" stop-color="#333333"/>
<stop offset="1" stop-color="#222222"/>
</linearGradient>
</defs>
</svg>
