<svg width="100" height="106" viewBox="0 0 100 106" fill="none" xmlns="http://www.w3.org/2000/svg">
<path fill-rule="evenodd" clip-rule="evenodd" d="M50 0.5C22.3832 0.5 0 24.5973 0 54.3289C0 78.1078 14.3222 98.2869 34.1939 105.411C36.6954 105.897 37.5978 104.24 37.5978 102.815C37.5978 101.536 37.5577 98.1465 37.5426 93.6617C23.6314 96.9106 20.6938 86.4406 20.6938 86.4406C18.4279 80.2234 15.1444 78.5665 15.1444 78.5665C10.6076 75.2258 15.4903 75.3014 15.4903 75.3014C20.5133 75.6792 23.1452 80.8494 23.1452 80.8494C27.6068 89.0743 34.8556 86.6997 37.693 85.3234C38.1492 81.8424 39.4526 79.4678 40.8763 78.124C29.7774 76.7693 18.1071 72.1496 18.1071 51.5171C18.1071 45.6507 20.0571 40.8366 23.2404 37.0803C22.7341 35.7149 21.0046 30.2371 23.7367 22.8325C23.7367 22.8325 27.9326 21.3807 37.4825 28.3427C41.561 27.1482 45.7682 26.5385 49.995 26.5294C54.2219 26.5367 58.4293 27.1465 62.5075 28.3427C72.0624 21.3753 76.2533 22.8325 76.2533 22.8325C78.9854 30.2371 77.2709 35.7149 76.7495 37.0803C79.9579 40.8366 81.8829 45.6453 81.8829 51.5171C81.8829 72.2035 70.2025 76.7477 59.0636 78.0808C60.8432 79.743 62.4474 83.0244 62.4474 88.0435C62.4474 95.243 62.3872 101.05 62.3872 102.815C62.3872 104.256 63.2795 105.929 65.8312 105.4C85.6928 98.2653 100 78.1024 100 54.3289C100 24.5973 77.6168 0.5 50 0.5Z" fill="url(#paint0_linear_4_171)"/>
<path d="M76.2533 22.8325C76.4175 22.3602 76.4169 22.36 76.4164 22.3598L76.4152 22.3594L76.4126 22.3586L76.4063 22.3564L76.3888 22.3509C76.375 22.3466 76.3571 22.3413 76.3349 22.3353C76.2906 22.3233 76.2294 22.3083 76.1511 22.2929C75.9944 22.262 75.7697 22.2294 75.4747 22.2143C74.8843 22.1841 74.0162 22.2243 72.8532 22.4871C70.5607 23.0052 67.1268 24.387 62.4119 27.7943C58.3623 26.6301 54.1887 26.0367 49.9959 26.0294L49.9939 26.0294C45.8012 26.0384 41.6279 26.6319 37.5782 27.7944C32.8656 24.3896 29.4318 23.0079 27.1387 22.4892C25.9755 22.226 25.107 22.1853 24.5164 22.215C24.2213 22.2299 23.9964 22.2623 23.8396 22.293C23.7613 22.3083 23.7001 22.3232 23.6558 22.3352C23.6336 22.3412 23.6156 22.3464 23.6019 22.3507L23.5844 22.3562L23.578 22.3583L23.5754 22.3592L23.5743 22.3596C23.5737 22.3598 23.5732 22.36 23.7367 22.8325L23.5732 22.36L23.3496 22.4373L23.2676 22.6594C20.6342 29.7964 22.0598 35.196 22.6733 36.979C19.5241 40.792 17.6071 45.646 17.6071 51.5171C17.6071 61.9311 20.556 68.3963 24.9938 72.4201C29.1595 76.1972 34.5667 77.7565 39.8491 78.494C38.6556 79.9405 37.6555 82.0994 37.2348 84.9872C35.8218 85.6403 33.5243 86.425 31.0761 86.1892C28.5248 85.9434 25.7417 84.5844 23.5872 80.6157C23.5864 80.6141 23.5855 80.6126 23.5847 80.611L23.5803 80.6025C23.5743 80.5909 23.5656 80.5745 23.5543 80.5536C23.5318 80.5119 23.4989 80.4523 23.4557 80.3771C23.3692 80.2269 23.2413 80.0144 23.0722 79.7594C22.7346 79.2501 22.2304 78.5672 21.5621 77.8708C20.2306 76.4835 18.2092 75.0044 15.5278 74.8028L15.5129 74.8017L15.498 74.8014L15.4903 75.3014C15.498 74.8014 15.4978 74.8014 15.4976 74.8014L15.4971 74.8014L15.4958 74.8014L15.4918 74.8014L15.4787 74.8013C15.4676 74.8012 15.4522 74.8012 15.4328 74.8014C15.3939 74.8016 15.339 74.8026 15.2715 74.805C15.1369 74.8098 14.9501 74.8207 14.7403 74.8451C14.3409 74.8917 13.7801 74.9954 13.3556 75.2543C13.1362 75.3882 12.9151 75.5866 12.797 75.8769C12.6746 76.1777 12.6922 76.5042 12.8186 76.8285C13.0547 77.4346 13.706 78.1283 14.8479 78.9691L14.8817 78.994L14.9172 79.0119L14.9176 79.0121L14.9182 79.0124L14.9186 79.0126L14.9191 79.0129L14.92 79.0134L14.9392 79.0238C14.9579 79.0342 14.9884 79.0516 15.0296 79.0767C15.1119 79.1269 15.237 79.2079 15.3966 79.3253C15.7156 79.56 16.1731 79.9405 16.7027 80.512C17.759 81.6517 19.109 83.5583 20.2186 86.5969L20.2242 86.6158C20.2312 86.639 20.2415 86.6717 20.2551 86.7134C20.2824 86.7966 20.3235 86.9152 20.3804 87.0634C20.4941 87.3595 20.6713 87.7744 20.9283 88.2597C21.4416 89.2294 22.2774 90.4881 23.5683 91.6423C26.0979 93.9041 30.3034 95.6998 37.0449 94.2842C37.0542 96.6471 37.0698 98.672 37.0817 100.207C37.0909 101.391 37.0978 102.283 37.0978 102.815C37.0978 103.435 36.8996 104.062 36.4826 104.474C36.0908 104.86 35.4299 105.133 34.3259 104.927C14.6838 97.8668 0.5 77.8948 0.5 54.3289C0.5 24.838 22.6934 1 50 1C77.3066 1 99.5 24.838 99.5 54.3289C99.5 77.8906 85.3298 97.8473 65.6959 104.917C64.5628 105.144 63.8946 104.874 63.5026 104.489C63.0847 104.079 62.8872 103.447 62.8872 102.815C62.8872 102.232 62.8938 101.207 62.9026 99.8331C62.9071 99.132 62.9122 98.3402 62.9173 97.4701C62.9323 94.8973 62.9474 91.6446 62.9474 88.0435C62.9474 83.5577 61.6907 80.3702 60.0976 78.4523C65.3957 77.7264 70.813 76.1898 74.9852 72.4278C79.4317 68.4185 82.3829 61.9577 82.3829 51.5171C82.3829 45.6432 80.4915 40.794 77.3186 36.9797C77.9461 35.1891 79.3538 29.7911 76.7223 22.6594L76.6406 22.4378L76.4175 22.3602L76.2533 22.8325Z" stroke="#ECFF9F" stroke-opacity="0.3"/>
<defs>
<linearGradient id="paint0_linear_4_171" x1="50" y1="0.5" x2="50" y2="105.5" gradientUnits="userSpaceOnUse">
<stop offset="0.812881" stop-color="#333333"/>
<stop offset="1" stop-color="#222222"/>
</linearGradient>
</defs>
</svg>
