<svg width="94" height="106" viewBox="0 0 94 106" fill="none" xmlns="http://www.w3.org/2000/svg">
<path d="M15.6667 0.5C11.5116 0.5 7.52673 2.34375 4.58866 5.62563C1.65059 8.90752 0 13.3587 0 18V88C0 92.6413 1.65059 97.0925 4.58866 100.374C7.52673 103.656 11.5116 105.5 15.6667 105.5H78.3333C82.4884 105.5 86.4733 103.656 89.4113 100.374C92.3494 97.0925 94 92.6413 94 88V18C94 13.3587 92.3494 8.90752 89.4113 5.62563C86.4733 2.34375 82.4884 0.5 78.3333 0.5H15.6667ZM53.9664 76.6542C57.7264 80.0375 61.4795 81.7058 65.2256 81.6592C67.5233 81.6592 69.285 81.1886 70.5105 80.2475C71.081 79.8338 71.5453 79.2612 71.8576 78.5861C72.1698 77.911 72.3193 77.1567 72.2912 76.3975C72.2992 75.5694 72.1443 74.7494 71.8375 73.9955C71.5307 73.2415 71.0795 72.572 70.5157 72.0342C69.2902 70.8403 66.9715 69.6425 63.5597 68.4408C59.462 67.1186 56.3025 65.4075 54.0813 63.3075C51.9019 61.2075 50.7913 58.2772 50.7496 54.5167C50.7496 50.9661 52.1282 47.9931 54.8856 45.5975C57.5663 43.2019 60.9956 42.0042 65.1733 42.0042C70.9944 42.0042 75.6648 43.5869 79.1846 46.7525L75.1634 53.7467C73.7155 52.4892 72.0545 51.5724 70.2807 51.0517C68.6866 50.4551 67.0212 50.1306 65.3404 50.0892C63.356 50.0892 61.7667 50.4956 60.5726 51.3083C59.3889 52.125 58.797 53.1944 58.797 54.5167C58.797 55.9711 59.5229 57.2117 60.9747 58.2383C62.4369 59.2261 64.9262 60.3169 68.4425 61.5108C72.6933 62.9225 75.7187 64.8047 77.5187 67.1575C79.3186 69.5103 80.2186 72.5047 80.2186 76.1408C80.2186 79.8625 78.9356 83.0708 76.3698 85.7658C73.8422 88.4181 70.1658 89.8083 65.3404 89.9367C59.0216 89.9367 53.7367 87.8192 49.4858 83.5842L53.9664 76.6542ZM25.0876 80.3758C26.313 81.2314 27.7874 81.6592 29.5108 81.6592C31.3107 81.6592 32.8043 81.0817 33.9914 79.9267C35.1751 78.7289 35.7687 76.6542 35.7722 73.7025V42.7742H43.5272V75.3708C43.4123 80.4186 42.1103 84.0547 39.621 86.2792C38.2589 87.5654 36.6754 88.5263 34.968 89.1025C33.3847 89.641 31.7402 89.922 30.0852 89.9367C27.213 89.9367 24.6663 89.3806 22.4451 88.2683C20.0707 87.0744 18.0793 84.9569 16.4709 81.9158L21.8707 76.975C22.8629 78.4722 23.9352 79.6058 25.0876 80.3758Z" fill="url(#paint0_linear_4_177)"/>
<path d="M54.3009 76.2825L53.865 75.8902L53.5466 76.3827L49.0659 83.3127L48.8461 83.6527L49.1329 83.9384C53.4829 88.2721 58.8971 90.4367 65.3404 90.4367V90.4369L65.3537 90.4365C70.2677 90.3058 74.0868 88.8861 76.7317 86.1108L76.7319 86.1106C79.3863 83.3226 80.7186 79.9908 80.7186 76.1408C80.7186 72.4205 79.7965 69.312 77.9158 66.8537C76.0313 64.3904 72.9012 62.4649 68.6016 61.0368C65.0963 59.8466 62.663 58.7742 61.259 57.827C59.9095 56.8712 59.297 55.7705 59.297 54.5167C59.297 53.3754 59.7938 52.4534 60.8555 51.7206C61.9396 50.9833 63.4177 50.59 65.3343 50.5892C66.9565 50.6299 68.5649 50.9434 70.1054 51.5199L70.1224 51.5263L70.1398 51.5314C71.8421 52.0312 73.4398 52.912 74.8356 54.1242L75.2942 54.5224L75.5969 53.9959L79.618 47.0017L79.8196 46.6511L79.5189 46.3807C75.8875 43.1147 71.0882 41.5042 65.1733 41.5042C60.8951 41.5042 57.3416 42.7334 54.5549 45.2224C51.6937 47.7094 50.2496 50.8178 50.2495 54.5167L50.2496 54.5222C50.2925 58.3822 51.4363 61.4532 53.7344 63.6676L53.7378 63.6708C56.0294 65.8374 59.2612 67.5785 63.3997 68.9146C66.7993 70.1124 69.0255 71.2805 70.1667 72.3923L70.1705 72.3959C70.6809 72.8828 71.093 73.4925 71.3743 74.1839C71.6557 74.8754 71.7986 75.6296 71.7913 76.3927L71.7911 76.4043L71.7916 76.416C71.8168 77.0983 71.6822 77.7741 71.4037 78.3762C71.1253 78.9781 70.7144 79.482 70.2169 79.8427L70.2168 79.8426L70.2059 79.8509C69.1012 80.6993 67.4645 81.1592 65.2256 81.1591L65.2193 81.1592C61.6374 81.2038 58.0007 79.6117 54.3009 76.2825ZM25.3738 79.9659L25.3738 79.9658L25.3653 79.9601C24.2818 79.2361 23.2534 78.1564 22.2875 76.6988L21.9645 76.2114L21.5331 76.6061L16.1334 81.547L15.8482 81.8079L16.0289 82.1496C17.6717 85.2556 19.7293 87.4624 22.2205 88.715L22.2212 88.7154C24.522 89.8675 27.1474 90.4367 30.0852 90.4367L30.0897 90.4367C31.7981 90.4215 33.495 90.1315 35.1279 89.5762C36.9043 88.9767 38.5481 87.9788 39.9594 86.6473C42.5913 84.292 43.9107 80.4944 44.0271 75.3822L44.0272 75.3822V75.3708V42.7742V42.2742H43.5272H35.7722H35.2722V42.7742V73.7019C35.2688 76.6102 34.6797 78.516 33.6392 79.5717C32.5545 80.6254 31.191 81.1592 29.5108 81.1592C27.8736 81.1592 26.503 80.7542 25.3738 79.9659ZM4.96119 5.95913C7.81085 2.776 11.6632 1 15.6667 1H78.3333C82.3368 1 86.1891 2.776 89.0388 5.95913C91.8901 9.14409 93.5 13.4746 93.5 18V88C93.5 92.5254 91.8901 96.8559 89.0388 100.041C86.1891 103.224 82.3368 105 78.3333 105H15.6667C11.6632 105 7.81085 103.224 4.96119 100.041C2.1099 96.8559 0.5 92.5254 0.5 88V18C0.5 13.4746 2.1099 9.14409 4.96119 5.95913Z" stroke="#ECFF9F" stroke-opacity="0.3"/>
<defs>
<linearGradient id="paint0_linear_4_177" x1="47" y1="0.5" x2="47" y2="105.5" gradientUnits="userSpaceOnUse">
<stop offset="0.539581" stop-color="#333333"/>
<stop offset="1" stop-color="#222222"/>
</linearGradient>
</defs>
</svg>
