<svg width="50" height="81" viewBox="0 0 50 81" fill="none" xmlns="http://www.w3.org/2000/svg">
<path fill-rule="evenodd" clip-rule="evenodd" d="M11.1125 29.1994C9.69915 29.1994 8.29964 29.4917 6.99387 30.0596C5.6881 30.6275 4.50165 31.4599 3.50226 32.5093C2.50287 33.5586 1.71011 34.8044 1.16925 36.1754C0.62838 37.5465 0.35 39.016 0.35 40.5C0.35 41.984 0.62838 43.4535 1.16925 44.8246C1.71011 46.1956 2.50287 47.4414 3.50226 48.4907C4.50165 49.5401 5.6881 50.3725 6.99387 50.9404C8.29964 51.5083 9.69915 51.8006 11.1125 51.8006H21.875V40.7275C21.8733 40.5758 21.8733 40.4242 21.875 40.2725V29.1994H11.1125ZM21.875 22.6369H11.1125C8.25755 22.6369 5.51954 21.446 3.50079 19.3264C1.48204 17.2067 0.347916 14.3318 0.347916 11.3341C0.347916 8.33637 1.48204 5.46146 3.50079 3.34177C5.51954 1.22208 8.25755 0.03125 11.1125 0.03125H21.875V22.6369ZM28.125 0.03125V22.6369H38.8875C41.7058 22.5787 44.3899 21.3622 46.3634 19.2489C48.3369 17.1355 49.4424 14.2938 49.4424 11.3341C49.4424 8.3743 48.3369 5.53259 46.3634 3.41924C44.3899 1.30589 41.7058 0.0894722 38.8875 0.03125H28.125ZM38.8875 29.195C36.0625 29.1946 33.3506 30.3606 31.337 32.4412C29.3235 34.5218 28.1698 37.3503 28.125 40.3162V40.6794C28.1595 42.9062 28.8199 45.0728 30.0233 46.9068C31.2266 48.7409 32.9193 50.1607 34.8887 50.9879C36.8581 51.8151 39.0163 52.0128 41.0924 51.5562C43.1684 51.0997 45.0697 50.0092 46.5574 48.4217C48.0451 46.8342 49.0529 44.8205 49.4542 42.6336C49.8555 40.4466 49.6324 38.1839 48.8129 36.1297C47.9934 34.0755 46.6141 32.3213 44.8482 31.0875C43.0823 29.8537 41.0086 29.1953 38.8875 29.195ZM11.1125 58.3631C8.98288 58.3623 6.90084 59.0245 5.12972 60.2662C3.35861 61.5079 1.97797 63.2732 1.16243 65.3389C0.346885 67.4045 0.133073 69.6777 0.548037 71.8709C0.963 74.0642 1.9881 76.0789 3.49368 77.6604C4.99926 79.2419 6.91769 80.319 9.00633 80.7556C11.095 81.1921 13.26 80.9685 15.2276 80.113C17.1952 79.2575 18.877 77.8085 20.0602 75.9493C21.2434 74.0901 21.875 71.9042 21.875 69.6681V58.3631H11.1125Z" fill="url(#paint0_linear_4_416)"/>
<path d="M11.1123 58.8631H11.1125H21.375V69.6681C21.375 71.8106 20.7698 73.9031 19.6384 75.6808C18.5071 77.4583 16.9018 78.8398 15.0282 79.6545C13.155 80.469 11.0953 80.6814 9.10863 80.2662C7.1217 79.8509 5.29319 78.8255 3.85581 77.3157C2.41818 75.8056 1.4368 73.8788 1.03932 71.778C0.641823 69.6771 0.846827 67.4998 1.62749 65.5225C2.4081 63.5453 3.72805 61.8595 5.41675 60.6756C7.10512 59.492 9.08716 58.8623 11.1123 58.8631ZM7.19329 30.5181C8.43662 29.9773 9.76829 29.6994 11.1125 29.6994H21.375V40.2698C21.3733 40.4233 21.3733 40.5767 21.375 40.7302V51.3006H11.1125C9.76829 51.3006 8.43662 51.0227 7.19329 50.4819C5.94989 49.9411 4.81848 49.1478 3.86433 48.1459C2.91013 47.144 2.15201 45.9533 1.63436 44.6411C1.11671 43.3289 0.85 41.9217 0.85 40.5C0.85 39.0783 1.11671 37.6711 1.63436 36.3589C2.15201 35.0467 2.91013 33.856 3.86433 32.8541C4.81848 31.8522 5.94989 31.0589 7.19329 30.5181ZM21.375 22.1369H11.1125C8.39825 22.1369 5.78993 21.005 3.86286 18.9815C1.93499 16.9573 0.847916 14.2068 0.847916 11.3341C0.847916 8.46132 1.93499 5.71085 3.86286 3.68659C5.78993 1.66317 8.39825 0.53125 11.1125 0.53125H21.375V22.1369ZM38.8823 22.1369H28.625V0.53125H38.8823C41.5599 0.587966 44.1151 1.7442 45.998 3.76049C47.8828 5.77885 48.9424 8.49768 48.9424 11.3341C48.9424 14.1704 47.8828 16.8893 45.998 18.9076C44.1151 20.9239 41.5599 22.0802 38.8823 22.1369ZM31.6963 32.7889C33.6183 30.8029 36.2016 29.6946 38.8874 29.695C40.9044 29.6953 42.8785 30.3212 44.5619 31.4974C46.2455 32.6737 47.5642 34.3488 48.3485 36.315C49.1329 38.2813 49.3468 40.4484 48.9624 42.5433C48.5781 44.6381 47.6132 46.5639 46.1926 48.0798C44.7722 49.5954 42.96 50.6336 40.985 51.0679C39.0102 51.5022 36.9571 51.3143 35.0823 50.5269C33.2072 49.7393 31.5917 48.3858 30.4413 46.6325C29.2915 44.8801 28.6587 42.8077 28.625 40.6754V40.3201C28.6689 37.4792 29.7745 34.7749 31.6963 32.7889Z" stroke="#ECFF9F" stroke-opacity="0.3"/>
<defs>
<linearGradient id="paint0_linear_4_416" x1="24.9951" y1="0.03125" x2="24.9951" y2="80.9731" gradientUnits="userSpaceOnUse">
<stop offset="0.805" stop-color="#333333"/>
<stop offset="1" stop-color="#222222"/>
</linearGradient>
</defs>
</svg>
