<svg width="94" height="106" viewBox="0 0 94 106" fill="none" xmlns="http://www.w3.org/2000/svg">
<path d="M0 0.5L8.24067 94.1285L47 105.5L85.9996 94.1337L94 0.5H0ZM69.4556 77.7905L47.0366 84.1115H47L24.5601 77.7905L23.0091 61.1637H34.0176L34.8009 69.1753L46.9948 72.53L59.2148 69.17L60.4942 53.1575H22.5287L21.5521 42.626H61.4499L62.3586 32.0945H20.492L19.5729 21.563H74.4376L69.4556 77.7905Z" fill="url(#paint0_linear_4_175)"/>
<path d="M69.5912 78.2717L69.9232 78.1781L69.9536 77.8346L74.9356 21.6071L74.9838 21.063H74.4376H19.5729H19.0274L19.0748 21.6065L19.9939 32.138L20.0337 32.5945H20.492H61.8136L60.9912 42.126H21.5521H21.0036L21.0542 42.6722L22.0308 53.2037L22.0729 53.6575H22.5287H59.9527L58.7443 68.7808L46.9948 72.0114L35.2651 68.7844L34.5152 61.1151L34.4711 60.6637H34.0176H23.0091H22.4603L22.5113 61.2102L24.0623 77.8369L24.0942 78.1787L24.4245 78.2718L46.8644 84.5928L46.9309 84.6115H47H47.0366H47.1057L47.1722 84.5927L69.5912 78.2717ZM8.70883 93.7448L0.54594 1H93.4555L85.5306 93.7496L47.0005 104.979L8.70883 93.7448Z" stroke="#ECFF9F" stroke-opacity="0.3"/>
<defs>
<linearGradient id="paint0_linear_4_175" x1="47" y1="0.5" x2="47" y2="105.5" gradientUnits="userSpaceOnUse">
<stop offset="0.442741" stop-color="#333333"/>
<stop offset="1" stop-color="#222222"/>
</linearGradient>
</defs>
</svg>
