<svg width="94" height="106" viewBox="0 0 94 106" fill="none" xmlns="http://www.w3.org/2000/svg">
<path d="M6.10352e-05 0.5L8.24073 94.076L47.0001 105.5L85.9944 94.0813L94.0001 0.5H6.10352e-05ZM73.3671 32.252H31.7251L32.6233 42.836H72.8187L69.5496 77.3022L47.3761 84.5525L25.0197 76.9137L23.5157 61.5208H34.0855L34.9211 68.9285L47.4544 73.2073L59.7057 69.2015L61.2567 53.4253H23.0614L20.1265 21.6628H74.5003L73.3671 32.252Z" fill="url(#paint0_linear_4_201)"/>
<path d="M73.3671 32.752H73.8164L73.8642 32.3052L74.9975 21.716L75.0567 21.1628H74.5003H20.1265H19.5782L19.6286 21.7088L22.5635 53.4713L22.6055 53.9253H23.0614H60.7052L59.2401 68.8277L47.4578 72.6801L35.3824 68.5577L34.5824 61.4647L34.5323 61.0208H34.0855H23.5157H22.9645L23.0181 61.5694L24.5221 76.9624L24.5534 77.2828L24.8581 77.3869L47.2144 85.0256L47.3726 85.0797L47.5315 85.0277L69.705 77.7775L70.0164 77.6757L70.0474 77.3495L73.3165 42.8832L73.3684 42.336H72.8187H33.0826L32.2693 32.752H73.3671ZM8.70891 93.6927L0.546028 1H93.4555L85.5254 93.6976L47.0005 104.979L8.70891 93.6927Z" stroke="#ECFF9F" stroke-opacity="0.3"/>
<defs>
<linearGradient id="paint0_linear_4_201" x1="47.0001" y1="0.5" x2="47.0001" y2="105.5" gradientUnits="userSpaceOnUse">
<stop offset="0.676984" stop-color="#333333"/>
<stop offset="1" stop-color="#222222"/>
</linearGradient>
</defs>
</svg>
