<svg width="100" height="105" viewBox="0 0 100 105" fill="none" xmlns="http://www.w3.org/2000/svg">
<path d="M23.5731 91.1123C26.0974 93.3679 30.2895 95.1609 37 93.7564V102.226C37 102.876 36.819 103.515 36.4233 103.935C36.056 104.326 35.426 104.61 34.3273 104.431C14.7084 97.3372 0.5 77.3688 0.5 53.8034C0.5 39.6551 5.72342 26.093 15.0109 16.099C19.6093 11.1509 25.0663 7.22794 31.0694 4.55223C37.0724 1.87657 43.5049 0.5 50 0.5C56.4951 0.5 62.9276 1.87657 68.9306 4.55223C74.9337 7.22794 80.3907 11.1509 84.9891 16.099C89.5875 21.0472 93.2369 26.9236 95.7274 33.3934C98.2178 39.8632 99.5 46.7986 99.5 53.8034C99.5 77.3702 85.3397 97.2865 65.718 104.433C64.5937 104.637 63.9542 104.35 63.5829 103.955C63.1816 103.529 63 102.878 63 102.226V87.4844C63 83.0065 61.7052 79.8202 60.0898 77.9007C65.3911 77.1699 70.8131 75.6373 74.9898 71.8974C79.4431 67.9098 82.4 61.4884 82.4 51.1132C82.4 45.1394 80.5317 40.3058 77.3173 36.4305C77.9278 34.6511 79.3688 29.1538 76.7176 22.1514L76.6347 21.9324L76.4134 21.8559L76.25 22.3284C76.4134 21.8559 76.4129 21.8557 76.4124 21.8555L76.4112 21.8551L76.4086 21.8542L76.4023 21.8521L76.3848 21.8466C76.3711 21.8424 76.3531 21.8371 76.331 21.8311C76.2866 21.8191 76.2254 21.8042 76.147 21.7889C75.9903 21.7582 75.7653 21.7256 75.47 21.7105C74.8792 21.6803 74.0102 21.7202 72.8466 21.9818C70.5528 22.4975 67.1183 23.8734 62.4062 27.2671C58.4717 26.1153 54.21 25.5409 50 25.5409C45.79 25.5409 41.5283 26.1153 37.5938 27.2671C32.8817 23.8734 29.4472 22.4975 27.1534 21.9818C25.9898 21.7202 25.1208 21.6803 24.53 21.7105C24.2347 21.7256 24.0097 21.7582 23.8529 21.7889C23.7746 21.8042 23.7134 21.8191 23.669 21.8311C23.6602 21.8335 23.652 21.8358 23.6445 21.8379C23.6332 21.8411 23.6234 21.8441 23.6152 21.8466L23.5977 21.8521L23.5914 21.8542L23.5888 21.8551L23.5876 21.8555C23.5871 21.8557 23.5866 21.8559 23.75 22.3284L23.5866 21.8559L23.3653 21.9324L23.2824 22.1514C20.6312 29.1538 22.0722 34.6511 22.6827 36.4305C19.4683 40.3058 17.6 45.1394 17.6 51.1132C17.6 61.4612 20.5442 67.8951 24.9772 71.9025C29.1402 75.666 34.5458 77.2235 39.8309 77.9565C38.6546 79.4003 37.6586 81.5529 37.2422 84.4502C35.8138 85.0699 33.4923 85.844 31.034 85.6145C28.4672 85.3749 25.6899 84.0372 23.5927 80.0962L23.5916 80.0939L23.5914 80.0937L23.5844 80.0802C23.5783 80.0686 23.5696 80.0523 23.5582 80.0315C23.5356 79.9898 23.5025 79.9303 23.459 79.8552C23.3721 79.7052 23.2436 79.493 23.0739 79.2383C22.735 78.7297 22.2293 78.0476 21.5603 77.3522C20.2277 75.9669 18.2077 74.4893 15.5376 74.2882L15.5243 74.2872L15.511 74.2869L15.5 74.7867C15.511 74.2869 15.5108 74.2869 15.5106 74.2869L15.5101 74.2868L15.5088 74.2868L15.5048 74.2868L15.4917 74.2866C15.4806 74.2864 15.4652 74.2863 15.4457 74.2864C15.4068 74.2864 15.3517 74.2869 15.2841 74.2888C15.1492 74.2927 14.962 74.3022 14.7517 74.325C14.3513 74.3683 13.7892 74.4669 13.3633 74.7201C13.1433 74.8509 12.9195 75.0465 12.7994 75.336C12.6746 75.6368 12.6929 75.9633 12.8198 76.2862C13.0567 76.8886 13.7099 77.5791 14.8544 78.4182L14.8864 78.4417L14.9198 78.4588L14.9202 78.459L14.9208 78.4593L14.9212 78.4595L14.9217 78.4598L14.9225 78.4602L14.9415 78.4707C14.96 78.4812 14.9902 78.4987 15.031 78.5239C15.1125 78.5744 15.2365 78.6559 15.3949 78.774C15.7117 79.01 16.1664 79.3928 16.6943 79.9674C17.7474 81.1134 19.0984 83.0297 20.2252 86.0816L20.2307 86.1C20.2329 86.1071 20.2354 86.1152 20.2382 86.1241C20.2444 86.1441 20.2523 86.1686 20.2617 86.1973C20.2891 86.2803 20.3303 86.3986 20.3873 86.5463C20.5013 86.8415 20.6787 87.2551 20.9358 87.7391C21.4493 88.7059 22.2846 89.961 23.5731 91.1123Z" fill="#1C1C1C" stroke="#ECFF9F"/>
</svg>
